<mxfile host="app.diagrams.net" modified="2023-06-09T16:23:00.029Z" agent="Mozilla/5.0 (Windows NT 10.0; Win64; x64) AppleWebKit/537.36 (KHTML, like Gecko) Chrome/114.0.0.0 Safari/537.36" etag="HIRUlVXqnU2tMWOH6lsk" version="21.3.7" type="github">
  <diagram name="Page-1" id="yoaPvE3-FH6qL5zSmkvA">
    <mxGraphModel dx="1434" dy="707" grid="1" gridSize="10" guides="1" tooltips="1" connect="1" arrows="1" fold="1" page="1" pageScale="1" pageWidth="827" pageHeight="1169" math="0" shadow="0">
      <root>
        <mxCell id="0" />
        <mxCell id="1" parent="0" />
        <mxCell id="ZzM1n9OqMJc8ke-1Wk0W-1" value="0" style="whiteSpace=wrap;html=1;aspect=fixed;fillColor=#d5e8d4;strokeColor=#82b366;" vertex="1" parent="1">
          <mxGeometry x="70" y="110" width="80" height="80" as="geometry" />
        </mxCell>
        <mxCell id="ZzM1n9OqMJc8ke-1Wk0W-2" value="30" style="whiteSpace=wrap;html=1;aspect=fixed;fillColor=#d5e8d4;strokeColor=#82b366;" vertex="1" parent="1">
          <mxGeometry x="210" y="110" width="80" height="80" as="geometry" />
        </mxCell>
        <mxCell id="ZzM1n9OqMJc8ke-1Wk0W-3" value="60" style="whiteSpace=wrap;html=1;aspect=fixed;fillColor=#d5e8d4;strokeColor=#82b366;" vertex="1" parent="1">
          <mxGeometry x="350" y="110" width="80" height="80" as="geometry" />
        </mxCell>
        <mxCell id="ZzM1n9OqMJc8ke-1Wk0W-4" value="70" style="whiteSpace=wrap;html=1;aspect=fixed;fillColor=#d5e8d4;strokeColor=#82b366;" vertex="1" parent="1">
          <mxGeometry x="490" y="110" width="80" height="80" as="geometry" />
        </mxCell>
        <mxCell id="ZzM1n9OqMJc8ke-1Wk0W-9" value="" style="curved=1;endArrow=classic;html=1;rounded=0;exitX=0.75;exitY=0;exitDx=0;exitDy=0;entryX=0.25;entryY=0;entryDx=0;entryDy=0;" edge="1" parent="1" source="ZzM1n9OqMJc8ke-1Wk0W-1" target="ZzM1n9OqMJc8ke-1Wk0W-2">
          <mxGeometry width="50" height="50" relative="1" as="geometry">
            <mxPoint x="130" y="90" as="sourcePoint" />
            <mxPoint x="180" y="40" as="targetPoint" />
            <Array as="points">
              <mxPoint x="160" y="90" />
              <mxPoint x="200" y="90" />
            </Array>
          </mxGeometry>
        </mxCell>
        <mxCell id="ZzM1n9OqMJc8ke-1Wk0W-10" value="" style="curved=1;endArrow=classic;html=1;rounded=0;exitX=0.75;exitY=0;exitDx=0;exitDy=0;entryX=0.25;entryY=0;entryDx=0;entryDy=0;" edge="1" parent="1" source="ZzM1n9OqMJc8ke-1Wk0W-2" target="ZzM1n9OqMJc8ke-1Wk0W-3">
          <mxGeometry width="50" height="50" relative="1" as="geometry">
            <mxPoint x="240" y="110" as="sourcePoint" />
            <mxPoint x="350" y="110" as="targetPoint" />
            <Array as="points">
              <mxPoint x="320" y="80" />
            </Array>
          </mxGeometry>
        </mxCell>
        <mxCell id="ZzM1n9OqMJc8ke-1Wk0W-11" value="" style="curved=1;endArrow=classic;html=1;rounded=0;exitX=0.75;exitY=0;exitDx=0;exitDy=0;entryX=0.25;entryY=0;entryDx=0;entryDy=0;" edge="1" parent="1" source="ZzM1n9OqMJc8ke-1Wk0W-3" target="ZzM1n9OqMJc8ke-1Wk0W-4">
          <mxGeometry width="50" height="50" relative="1" as="geometry">
            <mxPoint x="350" y="110" as="sourcePoint" />
            <mxPoint x="460" y="110" as="targetPoint" />
            <Array as="points">
              <mxPoint x="440" y="80" />
            </Array>
          </mxGeometry>
        </mxCell>
        <mxCell id="ZzM1n9OqMJc8ke-1Wk0W-14" value="" style="shape=flexArrow;endArrow=classic;startArrow=classic;html=1;rounded=0;exitX=1;exitY=0.5;exitDx=0;exitDy=0;entryX=0;entryY=0.5;entryDx=0;entryDy=0;fontStyle=1;fillColor=#f8cecc;strokeColor=#b85450;" edge="1" parent="1" source="ZzM1n9OqMJc8ke-1Wk0W-1" target="ZzM1n9OqMJc8ke-1Wk0W-2">
          <mxGeometry width="100" height="100" relative="1" as="geometry">
            <mxPoint x="360" y="440" as="sourcePoint" />
            <mxPoint x="460" y="340" as="targetPoint" />
            <mxPoint as="offset" />
          </mxGeometry>
        </mxCell>
        <mxCell id="ZzM1n9OqMJc8ke-1Wk0W-15" value="" style="shape=flexArrow;endArrow=classic;startArrow=classic;html=1;rounded=0;exitX=1;exitY=0.5;exitDx=0;exitDy=0;entryX=0;entryY=0.5;entryDx=0;entryDy=0;fontStyle=1;fillColor=#f8cecc;strokeColor=#b85450;" edge="1" parent="1" source="ZzM1n9OqMJc8ke-1Wk0W-2" target="ZzM1n9OqMJc8ke-1Wk0W-3">
          <mxGeometry width="100" height="100" relative="1" as="geometry">
            <mxPoint x="160" y="160" as="sourcePoint" />
            <mxPoint x="220" y="160" as="targetPoint" />
            <Array as="points" />
          </mxGeometry>
        </mxCell>
        <mxCell id="ZzM1n9OqMJc8ke-1Wk0W-16" value="" style="shape=flexArrow;endArrow=classic;startArrow=classic;html=1;rounded=0;exitX=1;exitY=0.5;exitDx=0;exitDy=0;entryX=0;entryY=0.5;entryDx=0;entryDy=0;fontStyle=1;fillColor=#f8cecc;strokeColor=#b85450;" edge="1" parent="1" source="ZzM1n9OqMJc8ke-1Wk0W-3" target="ZzM1n9OqMJc8ke-1Wk0W-4">
          <mxGeometry width="100" height="100" relative="1" as="geometry">
            <mxPoint x="300" y="160" as="sourcePoint" />
            <mxPoint x="360" y="160" as="targetPoint" />
            <Array as="points" />
            <mxPoint as="offset" />
          </mxGeometry>
        </mxCell>
        <mxCell id="ZzM1n9OqMJc8ke-1Wk0W-17" value="keyframe" style="rounded=0;whiteSpace=wrap;html=1;fillColor=#d5e8d4;strokeColor=#82b366;" vertex="1" parent="1">
          <mxGeometry x="70" y="190" width="80" height="20" as="geometry" />
        </mxCell>
        <mxCell id="ZzM1n9OqMJc8ke-1Wk0W-18" value="&lt;b&gt;frames&lt;/b&gt;&lt;br&gt;overlap &lt;br&gt;&amp;gt; &lt;br&gt;threshold" style="rounded=0;whiteSpace=wrap;html=1;fillColor=#f8cecc;strokeColor=#b85450;" vertex="1" parent="1">
          <mxGeometry x="150" y="190" width="60" height="60" as="geometry" />
        </mxCell>
        <mxCell id="ZzM1n9OqMJc8ke-1Wk0W-19" value="frames" style="rounded=0;whiteSpace=wrap;html=1;" vertex="1" parent="1">
          <mxGeometry x="430" y="190" width="60" height="20" as="geometry" />
        </mxCell>
        <mxCell id="ZzM1n9OqMJc8ke-1Wk0W-21" value="frames" style="rounded=0;whiteSpace=wrap;html=1;" vertex="1" parent="1">
          <mxGeometry x="290" y="190" width="60" height="20" as="geometry" />
        </mxCell>
        <mxCell id="ZzM1n9OqMJc8ke-1Wk0W-23" value="keyframe" style="rounded=0;whiteSpace=wrap;html=1;fillColor=#d5e8d4;strokeColor=#82b366;" vertex="1" parent="1">
          <mxGeometry x="350" y="190" width="80" height="20" as="geometry" />
        </mxCell>
        <mxCell id="ZzM1n9OqMJc8ke-1Wk0W-25" value="keyframe" style="rounded=0;whiteSpace=wrap;html=1;fillColor=#d5e8d4;strokeColor=#82b366;" vertex="1" parent="1">
          <mxGeometry x="210" y="190" width="80" height="20" as="geometry" />
        </mxCell>
        <mxCell id="ZzM1n9OqMJc8ke-1Wk0W-26" value="keyframe" style="rounded=0;whiteSpace=wrap;html=1;fillColor=#d5e8d4;strokeColor=#82b366;" vertex="1" parent="1">
          <mxGeometry x="490" y="190" width="80" height="20" as="geometry" />
        </mxCell>
        <mxCell id="ZzM1n9OqMJc8ke-1Wk0W-27" value="&lt;b&gt;frames&lt;/b&gt;&lt;br&gt;overlap &lt;br&gt;&amp;gt; &lt;br&gt;threshold" style="rounded=0;whiteSpace=wrap;html=1;fillColor=#f8cecc;strokeColor=#b85450;" vertex="1" parent="1">
          <mxGeometry x="290" y="190" width="60" height="60" as="geometry" />
        </mxCell>
        <mxCell id="ZzM1n9OqMJc8ke-1Wk0W-28" value="&lt;b&gt;frames&lt;/b&gt;&lt;br&gt;overlap &lt;br&gt;&amp;gt; &lt;br&gt;threshold" style="rounded=0;whiteSpace=wrap;html=1;fillColor=#f8cecc;strokeColor=#b85450;" vertex="1" parent="1">
          <mxGeometry x="430" y="190" width="60" height="60" as="geometry" />
        </mxCell>
      </root>
    </mxGraphModel>
  </diagram>
</mxfile>
